<svg xmlns="http://www.w3.org/2000/svg" width="24" height="24" viewBox="0 0 24 24" fill="none">
  <path d="M5.81641 1.5H16.7969L22.0234 6.78516V21.9141C22.0234 22.2377 21.7611 22.5 21.4375 22.5H5.81641C5.4928 22.5 5.23047 22.2377 5.23047 21.9141V2.08594C5.23047 1.76234 5.4928 1.5 5.81641 1.5Z" fill="#FAFAFA"/>
  <path d="M16.7969 1.5V6.19922C16.7969 6.52282 17.0592 6.78516 17.3828 6.78516H22.0234L16.7969 1.5Z" fill="#E5E5E5"/>
  <path d="M2.94531 4.52344H9.67188C9.92188 4.52344 10.0469 4.64844 10.0469 4.89844V11.625C10.0469 11.875 9.92188 12 9.67188 12H2.94531C2.69531 12 2.57031 11.875 2.57031 11.625V4.89844C2.57031 4.64844 2.69531 4.52344 2.94531 4.52344Z" fill="#CCCCCC"/>
  <path d="M6.3033 5.625C6.65123 5.625 7.0015 5.73895 7.26845 5.94698C7.57291 6.18422 7.75 6.52636 7.75 6.92742C7.75 7.45547 7.37664 7.94515 6.66597 8.41523L6.6587 8.41999V9.07031C6.6587 9.22324 6.53664 9.34767 6.3846 9.35147L6.37745 9.35156C6.22213 9.35156 6.0962 9.22563 6.0962 9.07031V8.26608C6.09621 8.21822 6.10842 8.17116 6.13168 8.12935C6.15495 8.08753 6.1885 8.05234 6.22916 8.02711C6.88253 7.62162 7.1875 7.24751 7.1875 6.92742C7.1875 6.70481 7.09398 6.52413 6.9227 6.39066C6.75726 6.26175 6.52905 6.1875 6.3033 6.1875C6.07834 6.1875 5.85325 6.26126 5.69048 6.38965C5.52491 6.52022 5.43302 6.69705 5.42978 6.91547L5.42969 6.92742C5.42969 7.08277 5.30376 7.20867 5.14844 7.20867C4.99312 7.20867 4.86719 7.08277 4.86719 6.92742C4.86719 6.14927 5.5319 5.625 6.3033 5.625ZM6.39062 10.6172C6.61068 10.6172 6.78906 10.4388 6.78906 10.2188C6.78906 9.9987 6.61068 9.82031 6.39062 9.82031C6.17057 9.82031 5.99219 9.9987 5.99219 10.2188C5.99219 10.4388 6.17057 10.6172 6.39062 10.6172Z" fill="white"/>
  <path d="M7.21094 13.3828H20.2422C20.3984 13.3828 20.4766 13.4609 20.4766 13.6172C20.4766 13.7734 20.3984 13.8516 20.2422 13.8516H7.21094C7.05469 13.8516 6.97656 13.7734 6.97656 13.6172C6.97656 13.4609 7.05469 13.3828 7.21094 13.3828Z" fill="#D8D8D8"/>
  <path d="M7.21094 16.5703H20.2422C20.3984 16.5703 20.4766 16.6484 20.4766 16.8047C20.4766 16.9609 20.3984 17.0391 20.2422 17.0391H7.21094C7.05469 17.0391 6.97656 16.9609 6.97656 16.8047C6.97656 16.6484 7.05469 16.5703 7.21094 16.5703Z" fill="#D8D8D8"/>
  <path d="M7.21094 14.9766H20.2422C20.3984 14.9766 20.4766 15.0547 20.4766 15.2109C20.4766 15.3672 20.3984 15.4453 20.2422 15.4453H7.21094C7.05469 15.4453 6.97656 15.3672 6.97656 15.2109C6.97656 15.0547 7.05469 14.9766 7.21094 14.9766Z" fill="#D8D8D8"/>
  <path d="M7.21094 18.1406H20.2422C20.3984 18.1406 20.4766 18.2188 20.4766 18.375C20.4766 18.5312 20.3984 18.6094 20.2422 18.6094H7.21094C7.05469 18.6094 6.97656 18.5312 6.97656 18.375C6.97656 18.2188 7.05469 18.1406 7.21094 18.1406Z" fill="#D8D8D8"/>
  <path d="M7.21094 19.7344H20.2422C20.3984 19.7344 20.4766 19.8125 20.4766 19.9688C20.4766 20.125 20.3984 20.2031 20.2422 20.2031H7.21094C7.05469 20.2031 6.97656 20.125 6.97656 19.9688C6.97656 19.8125 7.05469 19.7344 7.21094 19.7344Z" fill="#D8D8D8"/>
</svg>